<mxfile host="app.diagrams.net" modified="2024-03-22T16:24:01.918Z" agent="Mozilla/5.0 (Windows NT 10.0; Win64; x64) AppleWebKit/537.36 (KHTML, like Gecko) Chrome/122.0.0.0 Safari/537.36" etag="GopTu7ZyRt8Ty52_XuMf" version="24.0.0" type="device">
  <diagram name="Page-1" id="5f0bae14-7c28-e335-631c-24af17079c00">
    <mxGraphModel dx="890" dy="390" grid="1" gridSize="10" guides="1" tooltips="1" connect="1" arrows="1" fold="1" page="1" pageScale="1" pageWidth="1100" pageHeight="850" background="none" math="0" shadow="0">
      <root>
        <mxCell id="0" />
        <mxCell id="1" parent="0" />
        <mxCell id="rn1lCd8nrOJlPFs5m_RR-1" value="&lt;span style=&quot;font-family: Roboto, -apple-system, BlinkMacSystemFont, &amp;quot;Apple Color Emoji&amp;quot;, &amp;quot;Segoe UI&amp;quot;, Oxygen, Ubuntu, Cantarell, &amp;quot;Fira Sans&amp;quot;, &amp;quot;Droid Sans&amp;quot;, &amp;quot;Helvetica Neue&amp;quot;, sans-serif; font-size: 16px; text-align: start; white-space-collapse: preserve; background-color: rgb(238, 255, 222);&quot;&gt;GUI Validator&lt;/span&gt;" style="shape=module;align=left;spacingLeft=20;align=center;verticalAlign=top;whiteSpace=wrap;html=1;" vertex="1" parent="1">
          <mxGeometry x="18" y="440" width="100" height="50" as="geometry" />
        </mxCell>
        <mxCell id="rn1lCd8nrOJlPFs5m_RR-2" value="&lt;span style=&quot;font-family: Roboto, -apple-system, BlinkMacSystemFont, &amp;quot;Apple Color Emoji&amp;quot;, &amp;quot;Segoe UI&amp;quot;, Oxygen, Ubuntu, Cantarell, &amp;quot;Fira Sans&amp;quot;, &amp;quot;Droid Sans&amp;quot;, &amp;quot;Helvetica Neue&amp;quot;, sans-serif; font-size: 16px; text-align: start; white-space-collapse: preserve; background-color: rgb(238, 255, 222);&quot;&gt;Mail Service&lt;/span&gt;" style="shape=module;align=left;spacingLeft=20;align=center;verticalAlign=top;whiteSpace=wrap;html=1;" vertex="1" parent="1">
          <mxGeometry x="236" y="464" width="100" height="50" as="geometry" />
        </mxCell>
        <mxCell id="rn1lCd8nrOJlPFs5m_RR-3" value="&lt;span style=&quot;font-family: Roboto, -apple-system, BlinkMacSystemFont, &amp;quot;Apple Color Emoji&amp;quot;, &amp;quot;Segoe UI&amp;quot;, Oxygen, Ubuntu, Cantarell, &amp;quot;Fira Sans&amp;quot;, &amp;quot;Droid Sans&amp;quot;, &amp;quot;Helvetica Neue&amp;quot;, sans-serif; font-size: 16px; text-align: start; white-space-collapse: preserve; background-color: rgb(238, 255, 222);&quot;&gt;DB&lt;/span&gt;" style="shape=module;align=left;spacingLeft=20;align=center;verticalAlign=top;whiteSpace=wrap;html=1;" vertex="1" parent="1">
          <mxGeometry x="525" y="450" width="100" height="50" as="geometry" />
        </mxCell>
        <mxCell id="rn1lCd8nrOJlPFs5m_RR-4" value="&lt;span style=&quot;font-family: Roboto, -apple-system, BlinkMacSystemFont, &amp;quot;Apple Color Emoji&amp;quot;, &amp;quot;Segoe UI&amp;quot;, Oxygen, Ubuntu, Cantarell, &amp;quot;Fira Sans&amp;quot;, &amp;quot;Droid Sans&amp;quot;, &amp;quot;Helvetica Neue&amp;quot;, sans-serif; font-size: 16px; text-align: start; white-space-collapse: preserve; background-color: rgb(238, 255, 222);&quot;&gt; Server DB Connector&lt;/span&gt;" style="shape=module;align=left;spacingLeft=20;align=center;verticalAlign=top;whiteSpace=wrap;html=1;" vertex="1" parent="1">
          <mxGeometry x="360" y="330" width="100" height="50" as="geometry" />
        </mxCell>
        <mxCell id="rn1lCd8nrOJlPFs5m_RR-5" value="&lt;span style=&quot;font-family: Roboto, -apple-system, BlinkMacSystemFont, &amp;quot;Apple Color Emoji&amp;quot;, &amp;quot;Segoe UI&amp;quot;, Oxygen, Ubuntu, Cantarell, &amp;quot;Fira Sans&amp;quot;, &amp;quot;Droid Sans&amp;quot;, &amp;quot;Helvetica Neue&amp;quot;, sans-serif; font-size: 16px; text-align: start; white-space-collapse: preserve; background-color: rgb(238, 255, 222);&quot;&gt;Server Handler&lt;/span&gt;" style="shape=module;align=left;spacingLeft=20;align=center;verticalAlign=top;whiteSpace=wrap;html=1;" vertex="1" parent="1">
          <mxGeometry x="235" y="321" width="100" height="50" as="geometry" />
        </mxCell>
        <mxCell id="rn1lCd8nrOJlPFs5m_RR-10" value="&lt;span style=&quot;font-family: Roboto, -apple-system, BlinkMacSystemFont, &amp;quot;Apple Color Emoji&amp;quot;, &amp;quot;Segoe UI&amp;quot;, Oxygen, Ubuntu, Cantarell, &amp;quot;Fira Sans&amp;quot;, &amp;quot;Droid Sans&amp;quot;, &amp;quot;Helvetica Neue&amp;quot;, sans-serif; font-size: 16px; text-align: start; white-space-collapse: preserve; background-color: rgb(238, 255, 222);&quot;&gt;GUI&lt;/span&gt;" style="shape=module;align=left;spacingLeft=20;align=center;verticalAlign=top;whiteSpace=wrap;html=1;" vertex="1" parent="1">
          <mxGeometry x="13" y="321" width="100" height="50" as="geometry" />
        </mxCell>
        <mxCell id="rn1lCd8nrOJlPFs5m_RR-22" value="" style="ellipse;whiteSpace=wrap;html=1;align=center;aspect=fixed;fillColor=none;strokeColor=none;resizable=0;perimeter=centerPerimeter;rotatable=0;allowArrows=0;points=[];outlineConnect=1;" vertex="1" parent="1">
          <mxGeometry x="215" y="590" width="10" height="10" as="geometry" />
        </mxCell>
        <mxCell id="rn1lCd8nrOJlPFs5m_RR-28" value="" style="rounded=0;orthogonalLoop=1;jettySize=auto;html=1;endArrow=halfCircle;endFill=0;endSize=6;strokeWidth=1;sketch=0;exitX=1;exitY=0.5;exitDx=0;exitDy=0;" edge="1" target="rn1lCd8nrOJlPFs5m_RR-30" parent="1" source="rn1lCd8nrOJlPFs5m_RR-4">
          <mxGeometry relative="1" as="geometry">
            <mxPoint x="570" y="434" as="sourcePoint" />
            <Array as="points">
              <mxPoint x="550" y="355" />
            </Array>
          </mxGeometry>
        </mxCell>
        <mxCell id="rn1lCd8nrOJlPFs5m_RR-29" value="" style="rounded=0;orthogonalLoop=1;jettySize=auto;html=1;endArrow=oval;endFill=0;sketch=0;sourcePerimeterSpacing=0;targetPerimeterSpacing=0;endSize=10;exitX=0.25;exitY=0;exitDx=0;exitDy=0;" edge="1" target="rn1lCd8nrOJlPFs5m_RR-30" parent="1" source="rn1lCd8nrOJlPFs5m_RR-3">
          <mxGeometry relative="1" as="geometry">
            <mxPoint x="570" y="450" as="sourcePoint" />
          </mxGeometry>
        </mxCell>
        <mxCell id="rn1lCd8nrOJlPFs5m_RR-30" value="" style="ellipse;whiteSpace=wrap;html=1;align=center;aspect=fixed;fillColor=none;strokeColor=none;resizable=0;perimeter=centerPerimeter;rotatable=0;allowArrows=0;points=[];outlineConnect=1;" vertex="1" parent="1">
          <mxGeometry x="545" y="429" width="10" height="10" as="geometry" />
        </mxCell>
        <mxCell id="rn1lCd8nrOJlPFs5m_RR-31" value="&lt;span style=&quot;font-family: Roboto, -apple-system, BlinkMacSystemFont, &amp;quot;Apple Color Emoji&amp;quot;, &amp;quot;Segoe UI&amp;quot;, Oxygen, Ubuntu, Cantarell, &amp;quot;Fira Sans&amp;quot;, &amp;quot;Droid Sans&amp;quot;, &amp;quot;Helvetica Neue&amp;quot;, sans-serif; font-size: 16px; text-align: start; white-space-collapse: preserve; background-color: rgb(238, 255, 222);&quot;&gt;Server  Validator&lt;/span&gt;" style="shape=module;align=left;spacingLeft=20;align=center;verticalAlign=top;whiteSpace=wrap;html=1;" vertex="1" parent="1">
          <mxGeometry x="360" y="210" width="100" height="50" as="geometry" />
        </mxCell>
        <mxCell id="rn1lCd8nrOJlPFs5m_RR-44" value="" style="rounded=0;orthogonalLoop=1;jettySize=auto;html=1;endArrow=halfCircle;endFill=0;endSize=6;strokeWidth=1;sketch=0;" edge="1" target="rn1lCd8nrOJlPFs5m_RR-46" parent="1">
          <mxGeometry relative="1" as="geometry">
            <mxPoint x="306" y="374" as="sourcePoint" />
          </mxGeometry>
        </mxCell>
        <mxCell id="rn1lCd8nrOJlPFs5m_RR-45" value="" style="rounded=0;orthogonalLoop=1;jettySize=auto;html=1;endArrow=oval;endFill=0;sketch=0;sourcePerimeterSpacing=0;targetPerimeterSpacing=0;endSize=10;" edge="1" target="rn1lCd8nrOJlPFs5m_RR-46" parent="1">
          <mxGeometry relative="1" as="geometry">
            <mxPoint x="306" y="464" as="sourcePoint" />
          </mxGeometry>
        </mxCell>
        <mxCell id="rn1lCd8nrOJlPFs5m_RR-46" value="" style="ellipse;whiteSpace=wrap;html=1;align=center;aspect=fixed;fillColor=none;strokeColor=none;resizable=0;perimeter=centerPerimeter;rotatable=0;allowArrows=0;points=[];outlineConnect=1;" vertex="1" parent="1">
          <mxGeometry x="301" y="413" width="10" height="10" as="geometry" />
        </mxCell>
        <mxCell id="rn1lCd8nrOJlPFs5m_RR-50" value="" style="rounded=0;orthogonalLoop=1;jettySize=auto;html=1;endArrow=halfCircle;endFill=0;endSize=6;strokeWidth=1;sketch=0;exitX=0.697;exitY=1.015;exitDx=0;exitDy=0;exitPerimeter=0;" edge="1" target="rn1lCd8nrOJlPFs5m_RR-52" parent="1" source="rn1lCd8nrOJlPFs5m_RR-31">
          <mxGeometry relative="1" as="geometry">
            <mxPoint x="450" y="295" as="sourcePoint" />
          </mxGeometry>
        </mxCell>
        <mxCell id="rn1lCd8nrOJlPFs5m_RR-51" value="" style="rounded=0;orthogonalLoop=1;jettySize=auto;html=1;endArrow=oval;endFill=0;sketch=0;sourcePerimeterSpacing=0;targetPerimeterSpacing=0;endSize=10;exitX=0.7;exitY=0;exitDx=0;exitDy=0;exitPerimeter=0;" edge="1" target="rn1lCd8nrOJlPFs5m_RR-52" parent="1" source="rn1lCd8nrOJlPFs5m_RR-4">
          <mxGeometry relative="1" as="geometry">
            <mxPoint x="410" y="295" as="sourcePoint" />
          </mxGeometry>
        </mxCell>
        <mxCell id="rn1lCd8nrOJlPFs5m_RR-52" value="" style="ellipse;whiteSpace=wrap;html=1;align=center;aspect=fixed;fillColor=none;strokeColor=none;resizable=0;perimeter=centerPerimeter;rotatable=0;allowArrows=0;points=[];outlineConnect=1;" vertex="1" parent="1">
          <mxGeometry x="425" y="290" width="10" height="10" as="geometry" />
        </mxCell>
        <mxCell id="rn1lCd8nrOJlPFs5m_RR-56" value="" style="rounded=0;orthogonalLoop=1;jettySize=auto;html=1;endArrow=halfCircle;endFill=0;endSize=6;strokeWidth=1;sketch=0;" edge="1" target="rn1lCd8nrOJlPFs5m_RR-58" parent="1">
          <mxGeometry relative="1" as="geometry">
            <mxPoint x="300" y="320" as="sourcePoint" />
          </mxGeometry>
        </mxCell>
        <mxCell id="rn1lCd8nrOJlPFs5m_RR-57" value="" style="rounded=0;orthogonalLoop=1;jettySize=auto;html=1;endArrow=oval;endFill=0;sketch=0;sourcePerimeterSpacing=0;targetPerimeterSpacing=0;endSize=10;exitX=0.096;exitY=0.497;exitDx=0;exitDy=0;exitPerimeter=0;" edge="1" target="rn1lCd8nrOJlPFs5m_RR-58" parent="1" source="rn1lCd8nrOJlPFs5m_RR-31">
          <mxGeometry relative="1" as="geometry">
            <mxPoint x="280" y="235" as="sourcePoint" />
          </mxGeometry>
        </mxCell>
        <mxCell id="rn1lCd8nrOJlPFs5m_RR-58" value="" style="ellipse;whiteSpace=wrap;html=1;align=center;aspect=fixed;fillColor=none;strokeColor=none;resizable=0;perimeter=centerPerimeter;rotatable=0;allowArrows=0;points=[];outlineConnect=1;" vertex="1" parent="1">
          <mxGeometry x="295" y="230" width="10" height="10" as="geometry" />
        </mxCell>
        <mxCell id="rn1lCd8nrOJlPFs5m_RR-59" value="" style="rounded=0;orthogonalLoop=1;jettySize=auto;html=1;endArrow=halfCircle;endFill=0;endSize=6;strokeWidth=1;sketch=0;exitX=0.57;exitY=1;exitDx=0;exitDy=0;exitPerimeter=0;" edge="1" target="rn1lCd8nrOJlPFs5m_RR-61" parent="1" source="rn1lCd8nrOJlPFs5m_RR-10">
          <mxGeometry relative="1" as="geometry">
            <mxPoint x="90" y="418" as="sourcePoint" />
          </mxGeometry>
        </mxCell>
        <mxCell id="rn1lCd8nrOJlPFs5m_RR-60" value="" style="rounded=0;orthogonalLoop=1;jettySize=auto;html=1;endArrow=oval;endFill=0;sketch=0;sourcePerimeterSpacing=0;targetPerimeterSpacing=0;endSize=10;" edge="1" target="rn1lCd8nrOJlPFs5m_RR-61" parent="1">
          <mxGeometry relative="1" as="geometry">
            <mxPoint x="70" y="440" as="sourcePoint" />
          </mxGeometry>
        </mxCell>
        <mxCell id="rn1lCd8nrOJlPFs5m_RR-61" value="" style="ellipse;whiteSpace=wrap;html=1;align=center;aspect=fixed;fillColor=none;strokeColor=none;resizable=0;perimeter=centerPerimeter;rotatable=0;allowArrows=0;points=[];outlineConnect=1;" vertex="1" parent="1">
          <mxGeometry x="65" y="413" width="10" height="10" as="geometry" />
        </mxCell>
        <mxCell id="rn1lCd8nrOJlPFs5m_RR-62" value="" style="rounded=0;orthogonalLoop=1;jettySize=auto;html=1;endArrow=halfCircle;endFill=0;endSize=6;strokeWidth=1;sketch=0;exitX=0.127;exitY=0.494;exitDx=0;exitDy=0;exitPerimeter=0;" edge="1" target="rn1lCd8nrOJlPFs5m_RR-64" parent="1" source="rn1lCd8nrOJlPFs5m_RR-5">
          <mxGeometry relative="1" as="geometry">
            <mxPoint x="153" y="346" as="sourcePoint" />
          </mxGeometry>
        </mxCell>
        <mxCell id="rn1lCd8nrOJlPFs5m_RR-63" value="" style="rounded=0;orthogonalLoop=1;jettySize=auto;html=1;endArrow=oval;endFill=0;sketch=0;sourcePerimeterSpacing=0;targetPerimeterSpacing=0;endSize=10;" edge="1" target="rn1lCd8nrOJlPFs5m_RR-64" parent="1">
          <mxGeometry relative="1" as="geometry">
            <mxPoint x="113" y="346" as="sourcePoint" />
          </mxGeometry>
        </mxCell>
        <mxCell id="rn1lCd8nrOJlPFs5m_RR-64" value="" style="ellipse;whiteSpace=wrap;html=1;align=center;aspect=fixed;fillColor=none;strokeColor=none;resizable=0;perimeter=centerPerimeter;rotatable=0;allowArrows=0;points=[];outlineConnect=1;" vertex="1" parent="1">
          <mxGeometry x="128" y="341" width="10" height="10" as="geometry" />
        </mxCell>
      </root>
    </mxGraphModel>
  </diagram>
</mxfile>
